<svg width="180" height="180" viewBox="0 0 180 180" fill="none" xmlns="http://www.w3.org/2000/svg">
<rect width="180" height="180" fill="white"/>
<path d="M55.8482 55.2513C52.0379 11.6261 117.979 5.51291 122.173 49.0995C125.975 92.717 60.0342 98.8379 55.8482 55.2513Z" fill="#F64653"/>
<path d="M88.1248 155.962C87.7952 133.266 94.3425 84.9233 154.641 75.7881C158.873 75.1483 161.648 80.1206 158.903 83.42L96.3588 158.891C93.5912 162.229 88.1862 160.309 88.1248 155.962Z" fill="#0068FF"/>
<path d="M77.7978 141.376C87.1588 88.3459 16.9935 63.8622 19.5695 82.4485C19.7842 83.9749 20.4742 85.4011 21.4325 86.6037C28.2942 95.1684 67.7392 144.429 67.7392 144.429C70.9285 148.407 77.3608 146.472 77.7978 141.376Z" fill="#0068FF"/>
</svg>
