<svg width="310" height="310" viewBox="0 0 310 310" fill="none" xmlns="http://www.w3.org/2000/svg">
<path d="M126.938 169.794C126.938 174.029 125.256 178.09 122.261 181.085C119.266 184.08 115.205 185.762 110.97 185.762C106.735 185.762 102.673 184.08 99.6787 181.085C96.6841 178.09 95.0017 174.029 95.0017 169.794V149.708H32.0332C40.8746 180.014 52.5653 209.414 66.9488 237.516C71.2672 245.651 77.9959 257.602 87.0344 257.602C96.073 257.602 102.668 245.785 107.12 237.516C121.496 209.457 133.186 180.102 142.036 149.842H126.938V169.794Z" fill="#EAF3FF"/>
<path d="M150.639 107.729C150.639 107.026 150.639 106.357 150.371 105.654C150.204 104.348 150.037 103.042 149.769 101.737C149.769 100.933 149.4 100.097 149.2 99.2931C148.999 98.4897 148.697 97.0502 148.363 95.9455C148.028 94.8408 147.827 94.2048 147.526 93.3344C147.225 92.464 146.823 91.3593 146.455 90.422L145.35 87.7439C144.948 86.8735 144.513 86.0031 144.078 85.1662C143.643 84.3293 143.174 83.3585 142.672 82.4881C142.17 81.6178 141.768 80.9482 141.299 80.1783C140.831 79.4083 140.195 78.4041 139.592 77.5337C138.989 76.6633 138.621 76.2281 138.119 75.5921C135.257 71.7493 131.966 68.2451 128.311 65.1475C127.239 64.2102 126.101 63.3733 124.963 62.5364L123.724 61.5991C122.687 60.8961 121.615 60.2265 120.544 59.557L118.77 58.4523C117.766 57.8832 116.728 57.3476 115.69 56.8455L113.481 55.7742C112.51 55.3055 111.506 54.9038 110.501 54.5021L107.857 53.5313C106.919 53.1966 105.982 52.8953 105.011 52.6275C104.04 52.3597 102.936 52.0584 101.898 51.824L99.2868 51.2215C98.0147 50.9537 96.7426 50.7863 95.4705 50.6189C94.734 50.6189 94.031 50.3846 93.2945 50.3176C91.1855 50.0498 89.11 50.0498 87.0345 50.0498C84.959 50.0498 82.8835 50.0498 80.8414 50.3511C80.105 50.3511 79.402 50.5519 78.6655 50.6524C77.3934 50.8198 76.1213 50.9871 74.8492 51.2549L72.2381 51.8575C71.2003 52.0918 70.1291 52.3597 69.1248 52.6609C68.1205 52.9622 67.2166 53.23 66.2793 53.5648L63.6347 54.5356C62.6304 54.9373 61.6261 55.339 60.6553 55.8077L58.4459 56.8789C57.4081 57.3811 56.3704 57.9167 55.3661 58.4858L53.5919 59.5905C52.5206 60.26 51.4494 60.9295 50.4117 61.6325L49.173 62.5699C48.0348 63.4068 46.8967 64.2437 45.8254 65.181C42.1698 68.2786 38.8791 71.7827 36.0169 75.6255C35.5148 76.2616 35.0126 76.8976 34.544 77.5672C34.0753 78.2367 33.4058 79.3414 32.8367 80.2118C32.2676 81.0821 31.8994 81.7517 31.4642 82.5216C31.029 83.2916 30.4934 84.2958 30.0582 85.1997C29.623 86.1036 29.1878 86.907 28.7861 87.7774L27.6814 90.4555C27.3131 91.3928 26.9449 92.3971 26.6101 93.3679C26.2754 94.3387 26.0411 95.1086 25.7732 95.979C25.5054 96.8494 25.1707 98.1884 24.9363 99.3266C24.702 100.465 24.5346 100.967 24.3673 101.77C24.0994 103.076 23.9321 104.382 23.7647 105.687C23.7647 106.39 23.5638 107.06 23.4969 107.763C23.296 109.805 23.1621 111.847 23.1621 113.956C23.1669 123.64 25.4005 133.193 29.6899 141.875H103.003V169.827C103.134 171.855 104.032 173.758 105.515 175.147C106.998 176.537 108.954 177.311 110.987 177.311C113.019 177.311 114.975 176.537 116.458 175.147C117.941 173.758 118.839 171.855 118.971 169.827V141.841H144.379C148.726 133.173 151.017 123.619 151.074 113.922C150.907 111.813 150.639 109.771 150.639 107.729Z" fill="#0068FF"/>
<path d="M166 69.4659C166 57.8183 175.522 48.376 187.267 48.376H265.247C276.992 48.376 286.514 57.8183 286.514 69.4659V181.946C286.514 193.593 276.992 203.036 265.247 203.036H247.524V238.185C247.524 249.833 238.002 259.275 226.257 259.275C214.511 259.275 204.99 249.833 204.99 238.185V203.036H187.267C175.522 203.036 166 193.593 166 181.946V149.111C168.217 149.888 170.603 150.311 173.089 150.311C175.856 150.311 178.499 149.787 180.923 148.834C183.381 157.787 191.638 164.371 201.445 164.371C213.191 164.371 222.712 154.928 222.712 143.281V92.3134C222.712 88.4307 219.539 85.2834 215.623 85.2834C211.708 85.2834 208.534 88.4307 208.534 92.3134V143.281C208.534 147.163 205.361 150.311 201.445 150.311C197.53 150.311 194.356 147.163 194.356 143.281V115.161C194.356 111.278 191.182 108.131 187.267 108.131C183.352 108.131 180.178 111.278 180.178 115.161V129.221C180.178 133.103 177.004 136.251 173.089 136.251C169.174 136.251 166 133.103 166 129.221V69.4659Z" fill="#EAF3FF"/>
</svg>
