<svg width="500" height="500" viewBox="0 0 500 500" fill="none" xmlns="http://www.w3.org/2000/svg">
<path d="M147.068 144.86C135.527 12.7277 335.249 -5.78812 347.951 126.227C359.469 258.336 159.746 276.875 147.068 144.86Z" fill="#F64653"/>
<path d="M244.827 449.891C243.829 381.152 263.659 234.73 446.291 207.061C459.109 205.123 467.515 220.183 459.202 230.177L269.766 458.764C261.384 468.874 245.013 463.06 244.827 449.891Z" fill="#0068FF"/>
<path d="M213.549 405.715C241.902 245.097 29.3847 170.94 37.1868 227.235C37.837 231.858 39.9269 236.177 42.8295 239.82C63.6121 265.761 183.083 414.961 183.083 414.961C192.743 427.009 212.225 421.148 213.549 405.715Z" fill="#0068FF"/>
</svg>
